<?xml version="1.0" encoding="UTF-8" standalone="no"?>
<svg
   xmlns:dc="http://purl.org/dc/elements/1.1/"
   xmlns:cc="http://creativecommons.org/ns#"
   xmlns:rdf="http://www.w3.org/1999/02/22-rdf-syntax-ns#"
   xmlns:svg="http://www.w3.org/2000/svg"
   xmlns="http://www.w3.org/2000/svg"
   xmlns:xlink="http://www.w3.org/1999/xlink"
   xmlns:sodipodi="http://sodipodi.sourceforge.net/DTD/sodipodi-0.dtd"
   xmlns:inkscape="http://www.inkscape.org/namespaces/inkscape"
   width="200"
   height="200"
   id="svg3186"
   version="1.1"
   inkscape:version="0.48.5 r10040"
   sodipodi:docname="compass-rose-full.svg">
  <metadata
     id="metadata3347">
    <rdf:RDF>
      <cc:Work
         rdf:about="">
        <dc:format>image/svg+xml</dc:format>
        <dc:type
           rdf:resource="http://purl.org/dc/dcmitype/StillImage" />
        <dc:title></dc:title>
      </cc:Work>
    </rdf:RDF>
  </metadata>
  <sodipodi:namedview
     pagecolor="#ffffff"
     bordercolor="#666666"
     borderopacity="1"
     objecttolerance="10"
     gridtolerance="10"
     guidetolerance="10"
     inkscape:pageopacity="0"
     inkscape:pageshadow="2"
     inkscape:window-width="1680"
     inkscape:window-height="984"
     id="namedview3345"
     showgrid="false"
     inkscape:zoom="3.72"
     inkscape:cx="66.227589"
     inkscape:cy="99.162046"
     inkscape:window-x="0"
     inkscape:window-y="27"
     inkscape:window-maximized="1"
     inkscape:current-layer="layer1" />
  <defs
     id="defs3188">
    <filter
       id="filter5096-2"
       color-interpolation-filters="sRGB">
      <feGaussianBlur
         id="feGaussianBlur5098-1"
         stdDeviation="0.751172" />
    </filter>
    <filter
       id="filter4544-6"
       color-interpolation-filters="sRGB">
      <feGaussianBlur
         id="feGaussianBlur4546-2"
         stdDeviation="1.076016" />
    </filter>
    <radialGradient
       id="svg_1"
       y2="1"
       x1="1"
       gradientUnits="userSpaceOnUse"
       cy="817.19"
       cx="540.17999"
       gradientTransform="matrix(-1.1273,1.1273,-1.1273,-1.1273,932.02,1299)"
       y1="1"
       r="30.91">
      <stop
         id="stop4550-9"
         stop-color="#f2f2f2"
         offset="0" />
      <stop
         id="stop4556-6"
         stop-color="#f9f9f9"
         offset=".7" />
      <stop
         id="stop4552-0"
         stop-color="#b3b3b3"
         offset="1" />
    </radialGradient>
    <radialGradient
       inkscape:collect="always"
       xlink:href="#svg_1"
       id="radialGradient3482"
       gradientUnits="userSpaceOnUse"
       gradientTransform="matrix(-1.6814243,1.6430961,-1.6814243,-1.6430961,1383.3505,2023.8756)"
       cx="540.17999"
       cy="817.19"
       r="30.91" />
  </defs>
  <g
     id="layer1"
     transform="translate(106.45161,-209.67742)">
    <path
       style="fill:#666666;stroke:#333333;stroke-width:0.76229173"
       inkscape:connector-curvature="0"
       d="m 70.964007,307.18775 c 0,41.409 -34.35189,74.97783 -76.7268253,74.97783 -42.3749347,0 -76.7268217,-33.56883 -76.7268217,-74.97783 0,-41.40899 34.351887,-74.97783 76.7268217,-74.97783 42.3749353,0 76.7268253,33.56884 76.7268253,74.97783 z"
       id="path4118" />
    <path
       inkscape:connector-curvature="0"
       style="fill:url(#radialGradient3482);stroke:#999999;stroke-width:0.30226266;stroke-linecap:round"
       d="m -27.806435,255.17654 c 29.3939717,-11.89755 63.091072,1.74235 75.266592,30.46571 12.17508,28.72394 -1.783,61.65291 -31.17637,73.55089 -29.39398,11.89754 -63.091078,-1.74236 -75.266602,-30.46571 -12.175225,-28.72394 1.783,-61.65291 31.17638,-73.55089 z"
       id="path3662" />
    <path
       style="stroke-width:2.11999989;filter:url(#filter4544-6)"
       inkscape:connector-curvature="0"
       d="m 0.7069,85.332 -3.625,20.812 -7.5,-11.781 3.25,14.531 -14.969,-10.5 10.469,14.906 -14.469,-3.2187 11.781,7.4687 -20.812,3.6563 20.812,3.625 -11.781,7.5 14.469,-3.2188 -10.469,14.906 14.969,-10.469 -3.25,14.5 7.4688,-11.781 3.6562,20.812 3.625,-20.781 7.4688,11.75 h 0.0312 l -3.2188,-14.5 14.906,10.469 -10.5,-14.938 14.531,3.25 -11.781,-7.5 20.781,-3.625 -20.781,-3.625 11.781,-7.5 -14.531,3.25 10.5,-14.938 -14.938,10.5 3.25,-14.531 h -0.0312 l -7.4687,11.75 -3.625,-20.781 h -1.03e-4 z"
       id="path3664"
       transform="matrix(1.49155,0,0,1.45755,-6.8039203,130.51812)" />
    <g
       id="g3592"
       transform="matrix(1.49155,0,0,1.45755,-6.8039203,130.51812)">
      <path
         style="fill:none;stroke:#e6e6e6;stroke-width:0.33199999;stroke-linecap:round"
         inkscape:connector-curvature="0"
         d="m -14.081,85.526 c 19.707,-8.1627 42.299,1.1955 50.462,20.902 8.1627,19.706 -1.1954,42.299 -20.902,50.462 -19.707,8.1627 -42.299,-1.1955 -50.462,-20.902 -8.1628,-19.707 1.1954,-42.299 20.902,-50.462 z"
         id="path3594" />
      <g
         style="stroke-width:2.11999989"
         id="g3205">
        <g
           style="fill:#666666"
           id="g3207">
          <path
             inkscape:connector-curvature="0"
             d="m -1.6475,126.86 13.463,21.191 -9.1733,-22.146 -1.947,-4.7006 -2.3425,5.6554 z"
             id="path3596" />
          <path
             inkscape:connector-curvature="0"
             d="m 6.348,123.55 21.191,-13.463 -22.146,9.1733 -4.7006,1.947 5.6554,2.3425 z"
             id="path3598" />
          <path
             inkscape:connector-curvature="0"
             d="m 3.0446,115.56 -13.463,-21.191 9.1733,22.146 1.947,4.7006 2.3425,-5.6554 z"
             id="path3600" />
          <path
             inkscape:connector-curvature="0"
             d="m -4.9509,118.86 -21.191,13.463 22.146,-9.1733 4.7006,-1.947 -5.6554,-2.3425 z"
             id="path3602" />
        </g>
        <g
           style="fill:#e6e6e6"
           id="g3213">
          <path
             inkscape:connector-curvature="0"
             d="m -4.9551,118.87 -5.4649,-24.504 9.1733,22.146 1.947,4.7005 -5.6554,-2.3425 z"
             id="path3604" />
          <path
             inkscape:connector-curvature="0"
             d="m 3.0344,115.55 24.504,-5.4649 -22.146,9.1733 -4.7005,1.947 2.3425,-5.6554 z"
             id="path3606" />
          <path
             inkscape:connector-curvature="0"
             d="m 6.3522,123.54 5.4649,24.504 -9.1733,-22.146 -1.947,-4.7005 5.6554,2.3425 z"
             id="path3608" />
          <path
             inkscape:connector-curvature="0"
             d="m -1.6373,126.86 -24.504,5.4649 22.146,-9.1733 4.7005,-1.947 -2.3425,5.6554 z"
             id="path3610" />
        </g>
        <g
           style="fill:#666666"
           id="g3219">
          <path
             inkscape:connector-curvature="0"
             d="m -4.9551,123.54 -5.4649,24.504 9.1733,-22.146 1.947,-4.7006 -5.6554,2.3425 z"
             id="path3612" />
          <path
             inkscape:connector-curvature="0"
             d="m 3.0344,126.86 24.504,5.4649 -22.146,-9.1733 -4.7005,-1.947 2.3425,5.6554 z"
             id="path3614" />
          <path
             inkscape:connector-curvature="0"
             d="m 6.3522,118.87 5.4649,-24.504 -9.1733,22.146 -1.947,4.7005 5.6554,-2.3425 z"
             id="path3616" />
          <path
             inkscape:connector-curvature="0"
             d="m -1.6373,115.55 -24.504,-5.4649 22.146,9.1733 4.7005,1.947 -2.3425,-5.6554 z"
             id="path3618" />
        </g>
        <g
           style="fill:#e6e6e6"
           id="g3225">
          <path
             inkscape:connector-curvature="0"
             d="m -1.6475,115.56 13.463,-21.191 -9.1733,22.146 -1.947,4.7006 -2.3425,-5.6554 z"
             id="path3620" />
          <path
             inkscape:connector-curvature="0"
             d="m 6.348,118.86 21.191,13.463 -22.146,-9.1733 -4.7006,-1.947 5.6554,-2.3425 z"
             id="path3622" />
          <path
             inkscape:connector-curvature="0"
             d="m 3.0446,126.86 -13.463,21.191 9.1733,-22.146 1.947,-4.7006 2.3425,5.6554 z"
             id="path3624" />
          <path
             inkscape:connector-curvature="0"
             d="m -4.9509,123.55 -21.191,-13.463 22.146,9.1733 4.7006,1.947 -5.6554,2.3425 z"
             id="path3626" />
        </g>
        <g
           style="fill:#666666"
           id="g3231">
          <path
             inkscape:connector-curvature="0"
             d="m -6.0984,121.2 -16.029,22.831 18.833,-18.833 3.9974,-3.9974 h -6.8015 z"
             id="path3628" />
          <path
             inkscape:connector-curvature="0"
             d="m 0.6924,128.01 22.831,16.029 -18.833,-18.833 -3.9974,-3.9973 v 6.8014 z"
             id="path3630" />
          <path
             inkscape:connector-curvature="0"
             d="M 7.4954,121.21 23.5244,98.379 4.6914,117.212 0.694,121.2094 H 7.4955 z"
             id="path3632" />
          <path
             inkscape:connector-curvature="0"
             d="m 0.7047,114.41 -22.831,-16.029 18.833,18.833 3.9974,3.9973 v -6.8014 z"
             id="path3634" />
        </g>
        <g
           style="fill:#e6e6e6"
           id="g3237">
          <path
             inkscape:connector-curvature="0"
             d="m 0.6924,114.41 22.831,-16.029 -18.833,18.833 -3.9974,3.9973 v -6.8014 z"
             id="path3636" />
          <path
             inkscape:connector-curvature="0"
             d="M 7.4954,121.2 23.5244,144.031 4.6914,125.198 0.694,121.2006 H 7.4955 z"
             id="path3638" />
          <path
             inkscape:connector-curvature="0"
             d="m 0.7047,128.01 -22.831,16.029 18.833,-18.833 3.9974,-3.9973 v 6.8014 z"
             id="path3640" />
          <path
             inkscape:connector-curvature="0"
             d="m -6.0983,121.21 -16.029,-22.831 18.833,18.833 3.9973,3.9974 h -6.8014 z"
             id="path3642" />
        </g>
        <g
           style="fill:#666666"
           id="g3243">
          <path
             inkscape:connector-curvature="0"
             d="m -4.6368,115.86 -30.531,5.3438 H 0.7072 L -4.6366,115.86 z"
             id="path3644" />
          <path
             inkscape:connector-curvature="0"
             d="m -4.6464,126.54 5.3438,30.531 v -35.875 l -5.3438,5.3438 z"
             id="path3646" />
          <path
             inkscape:connector-curvature="0"
             d="m 6.0339,126.55 30.531,-5.3438 H 0.6899 l 5.3438,5.3438 z"
             id="path3648" />
          <path
             inkscape:connector-curvature="0"
             d="M 6.0435,115.87 0.6997,85.339 v 35.875 l 5.3438,-5.3438 z"
             id="path3650" />
        </g>
        <g
           style="fill:#e6e6e6"
           id="g3249">
          <path
             inkscape:connector-curvature="0"
             d="m 6.0339,115.86 30.531,5.3438 H 0.6899 L 6.0337,115.86 z"
             id="path3652" />
          <path
             inkscape:connector-curvature="0"
             d="m 6.0435,126.54 -5.3438,30.531 v -35.875 l 5.3438,5.3438 z"
             id="path3654" />
          <path
             inkscape:connector-curvature="0"
             d="m -4.6368,126.55 -30.531,-5.3438 h 35.875 l -5.3438,5.3438 z"
             id="path3656" />
          <path
             inkscape:connector-curvature="0"
             d="M -4.6464,115.87 0.6974,85.339 v 35.875 l -5.3438,-5.3438 z"
             id="path3658" />
        </g>
      </g>
    </g>
    <g
       id="use3736"
       transform="matrix(1.49155,0,0,1.45755,-6.8039203,130.51812)">
      <path
         style="fill:none;stroke:#1a1a1a;stroke-width:0.38800001"
         inkscape:connector-curvature="0"
         d="m 35.889,121.21 h 3.1917"
         id="path4746" />
    </g>
    <g
       id="use3738"
       transform="matrix(1.49155,0,0,1.45755,-6.8039203,130.51812)">
      <path
         style="fill:none;stroke:#1a1a1a;stroke-width:0.38800001"
         inkscape:connector-curvature="0"
         d="m 35.889,121.21 h 3.1917"
         id="path4742" />
    </g>
    <g
       transform="matrix(1.3780132,0.55777525,-0.57078635,1.3466013,-265.36411,-1667.6613)"
       id="use3740">
      <path
         style="fill:none;stroke:#1a1a1a;stroke-width:0.38800001"
         inkscape:connector-curvature="0"
         d="m 714.47,1185.1 h 3.1917"
         id="path4738" />
    </g>
    <g
       transform="matrix(1.0546899,1.0306482,-1.0546899,1.0306482,494.05857,-1650.608)"
       id="use3742">
      <path
         style="fill:none;stroke:#1a1a1a;stroke-width:0.38800001"
         inkscape:connector-curvature="0"
         d="m 748.05,1186.8 h 3.1917"
         id="path4734" />
    </g>
    <g
       transform="matrix(0.57078635,1.3466013,-1.3780132,0.55777525,1189.0313,-1350.9357)"
       id="use3744">
      <path
         style="fill:none;stroke:#1a1a1a;stroke-width:0.38800001"
         inkscape:connector-curvature="0"
         d="m 779.69,1175.4 h 3.1917"
         id="path4730" />
    </g>
    <g
       transform="matrix(0,1.45755,-1.49155,0,1713.699,-814.25122)"
       id="use3746">
      <path
         style="fill:none;stroke:#1a1a1a;stroke-width:0.38800001"
         inkscape:connector-curvature="0"
         d="m 804.59,1152.8 h 3.1917"
         id="path4726" />
    </g>
    <g
       transform="matrix(-0.57078635,1.3466013,-1.3780132,-0.55777525,1988.2933,-122.14817)"
       id="use3748">
      <path
         style="fill:none;stroke:#1a1a1a;stroke-width:0.38800001"
         inkscape:connector-curvature="0"
         d="m 818.95,1122.4 h 3.1917"
         id="path4722" />
    </g>
    <g
       transform="matrix(-1.0546899,1.0306482,-1.0546899,-1.0306482,1970.9913,619.96341)"
       id="use3750">
      <path
         style="fill:none;stroke:#1a1a1a;stroke-width:0.38800001"
         inkscape:connector-curvature="0"
         d="m 820.58,1088.9 h 3.1917"
         id="path4718" />
    </g>
    <g
       transform="matrix(-1.3780132,0.55777525,-0.57078635,-1.3466013,1664.3286,1299.0943)"
       id="use3752">
      <path
         style="fill:none;stroke:#1a1a1a;stroke-width:0.38800001"
         inkscape:connector-curvature="0"
         d="m 809.24,1057.2 h 3.1917"
         id="path4714" />
    </g>
    <g
       transform="matrix(-1.49155,0,0,-1.45755,1115.0952,1811.8021)"
       id="use3754">
      <path
         style="fill:none;stroke:#1a1a1a;stroke-width:0.38800001"
         inkscape:connector-curvature="0"
         d="m 786.66,1032.3 h 3.1917"
         id="path4710" />
    </g>
    <g
       transform="matrix(-1.3780132,-0.55777525,0.57078635,-1.3466013,406.83273,2080.137)"
       id="use3756">
      <path
         style="fill:none;stroke:#1a1a1a;stroke-width:0.38800001"
         inkscape:connector-curvature="0"
         d="m 756.26,1018 h 3.1917"
         id="path4706" />
    </g>
    <g
       transform="matrix(-1.0546899,-1.0306482,1.0546899,-1.0306482,-352.58995,2063.2294)"
       id="use3758">
      <path
         style="fill:none;stroke:#1a1a1a;stroke-width:0.38800001"
         inkscape:connector-curvature="0"
         d="m 722.69,1016.3 h 3.1917"
         id="path4702" />
    </g>
    <g
       transform="matrix(-0.57078635,-1.3466013,1.3780132,-0.55777525,-1047.5628,1763.5571)"
       id="use3760">
      <path
         style="fill:none;stroke:#1a1a1a;stroke-width:0.38800001"
         inkscape:connector-curvature="0"
         d="m 691.04,1027.7 h 3.1917"
         id="path4698" />
    </g>
    <g
       transform="matrix(0,-1.45755,1.49155,0,-1572.3349,1226.8435)"
       id="use3762">
      <path
         style="fill:none;stroke:#1a1a1a;stroke-width:0.38800001"
         inkscape:connector-curvature="0"
         d="m 666.15,1050.3 h 3.1917"
         id="path4694" />
    </g>
    <g
       transform="matrix(0.57078635,-1.3466013,1.3780132,0.55777525,-1846.9292,534.72588)"
       id="use3764">
      <path
         style="fill:none;stroke:#1a1a1a;stroke-width:0.38800001"
         inkscape:connector-curvature="0"
         d="m 651.79,1080.7 h 3.1917"
         id="path4690" />
    </g>
    <g
       transform="matrix(1.0546899,-1.0306482,1.0546899,1.0306482,-1829.4781,-207.3857)"
       id="use3766">
      <path
         style="fill:none;stroke:#1a1a1a;stroke-width:0.38800001"
         inkscape:connector-curvature="0"
         d="m 650.16,1114.2 h 3.1917"
         id="path4686" />
    </g>
    <g
       transform="matrix(1.3780132,-0.55777525,0.57078635,1.3466013,-1522.8154,-886.51652)"
       id="use3768">
      <path
         style="fill:none;stroke:#1a1a1a;stroke-width:0.38800001"
         inkscape:connector-curvature="0"
         d="m 661.5,1145.9 h 3.1917"
         id="path4682" />
    </g>
    <g
       transform="matrix(1.4628824,-0.28435343,0.29098649,1.4295359,-1274.0845,-1169.325)"
       id="use3778">
      <path
         style="fill:none;stroke:#1a1a1a;stroke-width:0.12899999"
         inkscape:connector-curvature="0"
         d="m 662.56,1159.4 h 25.192"
         id="path4678" />
    </g>
    <g
       transform="matrix(1.4628824,-0.28435343,0.29098649,1.4295359,-1274.0845,-1169.325)"
       id="use3780">
      <path
         style="fill:none;stroke:#1a1a1a;stroke-width:0.12899999"
         inkscape:connector-curvature="0"
         d="m 662.56,1159.4 h 25.192"
         id="path4674" />
    </g>
    <g
       transform="matrix(1.4628824,0.28435343,-0.29098649,1.4295359,-633.01628,-1567.5276)"
       id="use3782">
      <path
         style="fill:none;stroke:#1a1a1a;stroke-width:0.12899999"
         inkscape:connector-curvature="0"
         d="m 689.57,1179.4 h 25.192"
         id="path4670" />
    </g>
    <g
       transform="matrix(1.2401791,0.80977105,-0.82866045,1.2119091,115.20189,-1695.6463)"
       id="use3784">
      <path
         style="fill:none;stroke:#1a1a1a;stroke-width:0.12899999"
         inkscape:connector-curvature="0"
         d="m 722.18,1187.6 h 25.192"
         id="path4666" />
    </g>
    <g
       transform="matrix(0.82866045,1.2119091,-1.2401791,0.80977105,856.65437,-1534.2955)"
       id="use3786">
      <path
         style="fill:none;stroke:#1a1a1a;stroke-width:0.12899999"
         inkscape:connector-curvature="0"
         d="m 755.43,1182.7 h 25.192"
         id="path4662" />
    </g>
    <g
       transform="matrix(0.29098649,1.4295359,-1.4628824,0.28435343,1478.4368,-1107.8747)"
       id="use3788">
      <path
         style="fill:none;stroke:#1a1a1a;stroke-width:0.12899999"
         inkscape:connector-curvature="0"
         d="m 784.25,1165.4 h 25.192"
         id="path4658" />
    </g>
    <g
       transform="matrix(-0.29098649,1.4295359,-1.4628824,-0.28435343,1885.973,-481.41967)"
       id="use3790">
      <path
         style="fill:none;stroke:#1a1a1a;stroke-width:0.12899999"
         inkscape:connector-curvature="0"
         d="m 804.27,1138.3 h 25.192"
         id="path4654" />
    </g>
    <g
       transform="matrix(-0.82866045,1.2119091,-1.2401791,-0.80977105,2017.0802,249.74279)"
       id="use3792">
      <path
         style="fill:none;stroke:#1a1a1a;stroke-width:0.12899999"
         inkscape:connector-curvature="0"
         d="m 812.42,1105.7 h 25.192"
         id="path4650" />
    </g>
    <g
       transform="matrix(-1.2401791,0.80977105,-0.82866045,-1.2119091,1851.9656,974.27923)"
       id="use3794">
      <path
         style="fill:none;stroke:#1a1a1a;stroke-width:0.12899999"
         inkscape:connector-curvature="0"
         d="m 807.47,1072.5 h 25.192"
         id="path4646" />
    </g>
    <g
       transform="matrix(-1.4628824,0.28435343,-0.29098649,-1.4295359,1415.5679,1581.9027)"
       id="use3796">
      <path
         style="fill:none;stroke:#1a1a1a;stroke-width:0.12899999"
         inkscape:connector-curvature="0"
         d="m 790.18,1043.7 h 25.192"
         id="path4642" />
    </g>
    <g
       transform="matrix(-1.4628824,-0.28435343,0.29098649,-1.4295359,774.48487,1980.1491)"
       id="use3798">
      <path
         style="fill:none;stroke:#1a1a1a;stroke-width:0.12899999"
         inkscape:connector-curvature="0"
         d="m 763.17,1023.7 h 25.192"
         id="path4638" />
    </g>
    <g
       transform="matrix(-1.2401791,-0.80977105,0.82866045,-1.2119091,26.272697,2108.2677)"
       id="use3800">
      <path
         style="fill:none;stroke:#1a1a1a;stroke-width:0.12899999"
         inkscape:connector-curvature="0"
         d="m 730.56,1015.5 h 25.192"
         id="path4634" />
    </g>
    <g
       transform="matrix(-0.82866045,-1.2119091,1.2401791,-0.80977105,-715.17088,1946.9169)"
       id="use3802">
      <path
         style="fill:none;stroke:#1a1a1a;stroke-width:0.12899999"
         inkscape:connector-curvature="0"
         d="m 697.31,1020.4 h 25.192"
         id="path4630" />
    </g>
    <g
       transform="matrix(-0.29098649,-1.4295359,1.4628824,-0.28435343,-1336.9683,1520.4524)"
       id="use3804">
      <path
         style="fill:none;stroke:#1a1a1a;stroke-width:0.12899999"
         inkscape:connector-curvature="0"
         d="m 668.48,1037.7 h 25.192"
         id="path4626" />
    </g>
    <g
       transform="matrix(0.29098649,-1.4295359,1.4628824,0.28435343,-1744.4597,893.99738)"
       id="use3806">
      <path
         style="fill:none;stroke:#1a1a1a;stroke-width:0.12899999"
         inkscape:connector-curvature="0"
         d="m 648.47,1064.8 h 25.192"
         id="path4622" />
    </g>
    <g
       transform="matrix(0.82866045,-1.2119091,1.2401791,0.80977105,-1875.567,162.84075)"
       id="use3808">
      <path
         style="fill:none;stroke:#1a1a1a;stroke-width:0.12899999"
         inkscape:connector-curvature="0"
         d="m 640.32,1097.4 h 25.192"
         id="path4618" />
    </g>
    <g
       transform="matrix(1.2401791,-0.80977105,0.82866045,1.2119091,-1710.4524,-561.70152)"
       id="use3810">
      <path
         style="fill:none;stroke:#1a1a1a;stroke-width:0.12899999"
         inkscape:connector-curvature="0"
         d="m 645.27,1130.6 h 25.192"
         id="path4614" />
    </g>
    <g
       style="fill:#ffffff"
       id="g3331"
       transform="matrix(1.49155,0,0,1.45755,-6.8039203,130.51812)">
      <path
         inkscape:connector-curvature="0"
         d="m -0.6479,74.029 3.49,4.29 v -3.05 c 0,-0.35333 -0.063339,-0.59666 -0.19,-0.73 -0.12667,-0.13999 -0.37334,-0.22666 -0.74,-0.26 v -0.25 h 2.15 v 0.25 c -0.32667,0.05334 -0.54,0.13 -0.64,0.23 -0.093338,0.09335 -0.14,0.28334 -0.14,0.57 v 5.89 h -0.28 l -4.47,-5.44 v 4.02 c 0,0.35333 0.060001,0.59667 0.18,0.73 0.12667,0.12667 0.38333,0.21333 0.77,0.26 v 0.25 h -2.27 v -0.25 c 0.36667,-0.04668 0.60334,-0.12 0.71,-0.22 0.11333,-0.1 0.17,-0.29334 0.17,-0.58 v -4.74 c -0.24,-0.28666 -0.41666,-0.47666 -0.53,-0.57 -0.11333,-0.10001 -0.22,-0.14999 -0.32,-0.15 v -0.25 h 2.11"
         id="path5463" />
      <path
         inkscape:connector-curvature="0"
         d="m -0.0803,162.58 c 0.32,10e-6 0.65333,0.0567 1,0.17 0.34667,0.10667 0.54333,0.16002 0.59,0.16 0.086658,1e-5 0.15333,-0.0233 0.2,-0.07 0.046658,-0.0533 0.086658,-0.14334 0.12,-0.27 h 0.3 v 2.17 h -0.28 c -0.19333,-0.63333 -0.46333,-1.1 -0.81,-1.4 -0.34,-0.3 -0.71333,-0.45 -1.12,-0.45001 -0.34,10e-6 -0.61,0.09 -0.81,0.27 -0.19333,0.18001 -0.29,0.42334 -0.29,0.73 0,0.24002 0.07,0.44 0.21,0.60001 0.14667,0.15334 0.42,0.33 0.82,0.53 l 1.47,0.73 c 0.32,0.16 0.58333,0.41 0.79,0.75 0.20667,0.34001 0.31,0.69667 0.31,1.07 0,0.62666 -0.23,1.1367 -0.69,1.53 -0.45333,0.38667 -1.05,0.58 -1.79,0.58 -0.36,0 -0.72,-0.0567 -1.08,-0.17 -0.35333,-0.11333 -0.56333,-0.17 -0.63,-0.17 -0.14666,0 -0.24666,0.11333 -0.3,0.34 h -0.29 v -2.47 h 0.29 c 0.34667,1.4267 1.0267,2.14 2.04,2.14 0.38667,0 0.69333,-0.10333 0.92,-0.31 0.22667,-0.20666 0.34,-0.48334 0.34,-0.83 0,-0.26 -0.076672,-0.47333 -0.23,-0.64 -0.15333,-0.16666 -0.45,-0.35333 -0.89,-0.56 l -0.67,-0.32 c -0.59333,-0.28665 -1.0267,-0.59332 -1.3,-0.92 -0.27333,-0.33333 -0.41,-0.72 -0.41,-1.16 0,-0.63333 0.19334,-1.13 0.58,-1.49 0.39334,-0.36 0.93,-0.53999 1.61,-0.54001"
         id="path5447" />
      <path
         inkscape:connector-curvature="0"
         d="m -38.9,118.73 v 0.25 c -0.33334,0.0333 -0.56334,0.24667 -0.69,0.64 l -2,6.02 h -0.27 l -1.71,-4.77 -1.86,4.77 h -0.28 l -2.12,-6.02 c -0.08667,-0.24666 -0.17,-0.40666 -0.25,-0.48 -0.08,-0.0733 -0.22667,-0.12666 -0.44,-0.16 v -0.25 h 2.94 v 0.25 c -0.26,0.02 -0.43334,0.06 -0.52,0.12 -0.08,0.0534 -0.12,0.15334 -0.12,0.3 0,0.0733 0.02333,0.18333 0.07,0.33 l 1.2,3.64 1.18,-3.08 -0.35,-0.96 c -0.10001,-0.21333 -0.34001,-0.32999 -0.72,-0.34999 v -0.25 h 3.12 v 0.25 c -0.04001,0.007 -0.08334,0.01 -0.13,0.01 -0.22001,0.0133 -0.37334,0.0467 -0.46,0.10001 -0.08667,0.0533 -0.13001,0.14 -0.13,0.26 -1.1e-5,0.0733 0.04666,0.26 0.14,0.56 l 1.08,3.36 1.12,-3.43 c 0.04666,-0.13333 0.06999,-0.27333 0.07,-0.42001 -8e-6,-0.15333 -0.05001,-0.26001 -0.15,-0.32 -0.09334,-0.0667 -0.27334,-0.10666 -0.54,-0.12 v -0.25 h 1.82"
         id="path5455" />
      <path
         inkscape:connector-curvature="0"
         d="m 44.78,125.18 c 0.72666,0 1.28,-0.14665 1.66,-0.44 0.37999,-0.29333 0.70666,-0.73666 0.98,-1.33 h 0.28001 l -0.4,2.08 h -5.85 v -0.25 c 0.37333,-0.04 0.61333,-0.10333 0.71999,-0.19 0.10667,-0.0867 0.16,-0.26 0.16,-0.52 v -4.84 c 0,-0.25332 -0.06,-0.42998 -0.18,-0.53 -0.12,-0.1 -0.35334,-0.15999 -0.7,-0.18 v -0.25 h 5.77 v 2.01 h -0.25 c -0.12667,-0.66666 -0.35001,-1.11 -0.67,-1.33 -0.32002,-0.22666 -0.88667,-0.33999 -1.7,-0.34 -0.26001,2e-5 -0.43333,0.0333 -0.52,0.10001 -0.08667,0.06 -0.13001,0.18333 -0.13,0.37 v 2.32 h 0.04 c 0.52666,1e-5 0.90333,-0.10666 1.13,-0.32001 0.22666,-0.21999 0.37666,-0.60998 0.45,-1.17 h 0.26 v 3.38 h -0.26 c -0.06,-0.57999 -0.21001,-0.98334 -0.45,-1.21 -0.23334,-0.22665 -0.62334,-0.33998 -1.17,-0.34 v 2.42 c -1.5e-5,0.21334 0.05666,0.36 0.17,0.44 0.11999,0.08 0.33999,0.12 0.66,0.12"
         id="path5439" />
      <path
         inkscape:connector-curvature="0"
         d="m -34.361,88.292 2.094,2.574 v -1.83 c -1.1e-5,-0.21199 -0.038,-0.35799 -0.114,-0.438 -0.076,-0.08401 -0.224,-0.13599 -0.444,-0.15601 V 88.292 h 1.29 v 0.14999 c -0.19601,0.032 -0.32401,0.078 -0.384,0.138 -0.056,0.056 -0.084,0.17001 -0.084,0.342 v 3.534 h -0.168 l -2.682,-3.264 v 2.412 c 0,0.212 0.036,0.358 0.108,0.438 0.076,0.076 0.23,0.12799 0.462,0.15599 v 0.15001 h -1.362 v -0.15001 c 0.22,-0.028 0.362,-0.07199 0.426,-0.132 0.068,-0.06 0.102,-0.176 0.102,-0.348 v -2.844 c -0.144,-0.17199 -0.25,-0.28599 -0.318,-0.342 -0.068,-0.06001 -0.132,-0.09 -0.192,-0.09 v -0.14999 h 1.266"
         id="path5458" />
      <path
         inkscape:connector-curvature="0"
         d="m -25.519,88.292 v 0.14999 c -0.2,0.02 -0.338,0.14801 -0.414,0.384 l -1.2,3.612 h -0.162 l -1.026,-2.862 -1.116,2.862 h -0.168 l -1.272,-3.612 c -0.052,-0.148 -0.102,-0.24399 -0.15,-0.288 -0.048,-0.044 -0.136,-0.076 -0.264,-0.096 V 88.292 h 1.764 v 0.14999 c -0.156,0.012 -0.26,0.036 -0.312,0.072 -0.048,0.032 -0.072,0.092 -0.072,0.18 0,0.04401 0.014,0.11002 0.042,0.198 l 0.72,2.184 0.708,-1.848 -0.21,-0.576 c -0.06,-0.12798 -0.204,-0.19799 -0.432,-0.21 V 88.292 h 1.872 v 0.14999 c -0.024,0.004 -0.05,0.006 -0.078,0.006 -0.132,0.008 -0.224,0.02801 -0.276,0.06001 -0.052,0.032 -0.078,0.084 -0.078,0.156 0,0.044 0.028,0.15601 0.084,0.336 l 0.648,2.016 0.672,-2.058 c 0.028,-0.07999 0.042,-0.16399 0.042,-0.252 0,-0.092 -0.03001,-0.15599 -0.09,-0.192 -0.056,-0.04 -0.164,-0.064 -0.324,-0.072 v -0.14999 h 1.092"
         id="path5460" />
      <path
         inkscape:connector-curvature="0"
         d="m -35.019,149.12 c 0.192,0 0.392,0.034 0.6,0.102 0.208,0.064 0.326,0.096 0.354,0.096 0.052,0 0.092,-0.014 0.12,-0.042 0.028,-0.032 0.052,-0.086 0.072,-0.162 h 0.18 v 1.302 h -0.168 c -0.116,-0.38 -0.278,-0.66 -0.486,-0.84001 -0.204,-0.17999 -0.428,-0.26999 -0.672,-0.26999 -0.204,0 -0.366,0.054 -0.486,0.16199 -0.116,0.108 -0.174,0.25401 -0.174,0.438 0,0.144 0.042,0.26401 0.126,0.36 0.088,0.092 0.252,0.198 0.492,0.31801 l 0.882,0.438 c 0.192,0.096 0.35,0.246 0.474,0.45001 0.124,0.204 0.186,0.418 0.186,0.642 0,0.37599 -0.138,0.68199 -0.414,0.918 -0.272,0.232 -0.63,0.34799 -1.074,0.34799 -0.216,0 -0.432,-0.034 -0.648,-0.10199 -0.212,-0.068 -0.338,-0.102 -0.378,-0.102 -0.088,0 -0.148,0.068 -0.18,0.204 h -0.174 v -1.482 h 0.174 c 0.208,0.856 0.616,1.284 1.224,1.284 0.232,0 0.416,-0.062 0.552,-0.18599 0.136,-0.12401 0.204,-0.29001 0.204,-0.498 0,-0.15601 -0.046,-0.28401 -0.138,-0.384 -0.092,-0.10001 -0.27,-0.21201 -0.534,-0.336 l -0.402,-0.192 c -0.356,-0.172 -0.616,-0.356 -0.78,-0.552 -0.164,-0.2 -0.246,-0.43201 -0.246,-0.696 0,-0.38 0.116,-0.67801 0.348,-0.894 0.236,-0.216 0.558,-0.324 0.966,-0.324"
         id="path5450" />
      <path
         inkscape:connector-curvature="0"
         d="m -27.605,149.21 v 0.14999 c -0.2,0.02 -0.338,0.14801 -0.414,0.384 l -1.2,3.612 h -0.162 l -1.026,-2.862 -1.116,2.862 h -0.168 l -1.272,-3.612 c -0.052,-0.148 -0.102,-0.24399 -0.15,-0.28801 -0.048,-0.044 -0.136,-0.076 -0.264,-0.096 V 149.21 h 1.764 v 0.14999 c -0.156,0.012 -0.26,0.036 -0.312,0.072 -0.048,0.032 -0.072,0.092 -0.072,0.17999 0,0.044 0.014,0.11002 0.042,0.198 l 0.72,2.184 0.708,-1.848 -0.21,-0.576 c -0.06,-0.12799 -0.204,-0.198 -0.432,-0.21001 v -0.14999 h 1.872 v 0.14999 c -0.024,0.004 -0.05,0.006 -0.078,0.006 -0.132,0.008 -0.224,0.028 -0.276,0.06 -0.052,0.032 -0.078,0.084 -0.078,0.15601 0,0.044 0.028,0.15601 0.084,0.336 l 0.648,2.016 0.672,-2.058 c 0.02799,-0.08 0.042,-0.164 0.042,-0.25201 0,-0.092 -0.03,-0.15599 -0.09,-0.19199 -0.056,-0.04 -0.164,-0.064 -0.324,-0.072 v -0.14999 h 1.092"
         id="path5452" />
      <path
         inkscape:connector-curvature="0"
         d="m 29.444,149.12 c 0.192,0 0.39201,0.034 0.60001,0.102 0.208,0.064 0.326,0.096 0.354,0.096 0.052,0 0.092,-0.014 0.12,-0.042 0.028,-0.032 0.052,-0.086 0.072,-0.162 h 0.18 v 1.302 h -0.168 c -0.116,-0.38 -0.278,-0.66 -0.486,-0.84001 -0.204,-0.17999 -0.428,-0.26999 -0.672,-0.26999 -0.204,0 -0.366,0.054 -0.486,0.16199 -0.116,0.108 -0.174,0.25401 -0.174,0.438 0,0.144 0.042,0.26401 0.126,0.36 0.088,0.092 0.252,0.198 0.492,0.31801 l 0.882,0.438 c 0.192,0.096 0.35,0.246 0.474,0.45001 0.124,0.204 0.186,0.418 0.186,0.642 0,0.37599 -0.13799,0.68199 -0.41399,0.918 -0.272,0.232 -0.63,0.34799 -1.074,0.34799 -0.216,0 -0.432,-0.034 -0.648,-0.10199 -0.21201,-0.068 -0.338,-0.102 -0.37801,-0.102 -0.088,0 -0.148,0.068 -0.18,0.204 h -0.174 v -1.482 h 0.174 c 0.208,0.856 0.616,1.284 1.224,1.284 0.232,0 0.416,-0.062 0.55199,-0.18599 0.136,-0.12401 0.204,-0.29001 0.204,-0.498 0,-0.15601 -0.046,-0.28401 -0.138,-0.384 -0.092,-0.10001 -0.27,-0.21201 -0.534,-0.336 l -0.402,-0.192 c -0.356,-0.172 -0.616,-0.356 -0.78,-0.552 -0.164,-0.2 -0.246,-0.43201 -0.246,-0.696 0,-0.38 0.116,-0.67801 0.348,-0.894 0.236,-0.216 0.558,-0.324 0.966,-0.324"
         id="path5442" />
      <path
         inkscape:connector-curvature="0"
         d="m 33.066,153.08 c 0.436,0 0.768,-0.088 0.996,-0.26401 0.228,-0.176 0.424,-0.442 0.588,-0.798 h 0.168 l -0.24,1.248 h -3.51 V 153.116 c 0.224,-0.024 0.368,-0.062 0.432,-0.114 0.064,-0.052 0.096,-0.15601 0.096,-0.31201 v -2.904 c 0,-0.15201 -0.036,-0.258 -0.108,-0.31801 -0.072,-0.06 -0.212,-0.096 -0.42,-0.10799 v -0.15001 h 3.462 v 1.206 h -0.15 c -0.076,-0.40001 -0.21,-0.666 -0.402,-0.798 -0.19199,-0.136 -0.532,-0.204 -1.02,-0.204 -0.156,0 -0.26,0.02 -0.312,0.06 -0.052,0.036 -0.078,0.11 -0.078,0.222 v 1.392 h 0.024 c 0.31599,0 0.542,-0.064 0.67799,-0.192 0.136,-0.132 0.22601,-0.366 0.27,-0.702 h 0.156 v 2.028 h -0.156 c -0.036,-0.34801 -0.126,-0.59001 -0.27,-0.726 -0.14,-0.136 -0.37399,-0.20401 -0.702,-0.20401 v 1.452 c 0,0.12801 0.034,0.216 0.102,0.26401 0.072,0.048 0.204,0.072 0.396,0.072"
         id="path5444" />
      <path
         inkscape:connector-curvature="0"
         d="m 29.157,88.292 2.094,2.574 v -1.83 c 0,-0.21199 -0.038,-0.35799 -0.114,-0.438 -0.076,-0.08401 -0.22401,-0.13599 -0.444,-0.15601 V 88.292 h 1.29 v 0.14999 c -0.196,0.032 -0.324,0.078 -0.384,0.138 -0.056,0.056 -0.084,0.17001 -0.084,0.342 v 3.534 h -0.168 l -2.682,-3.264 v 2.412 c 0,0.212 0.03599,0.358 0.10799,0.438 0.076,0.076 0.23,0.12799 0.46201,0.15599 v 0.15001 h -1.362 v -0.15001 c 0.21999,-0.028 0.362,-0.07199 0.426,-0.132 0.068,-0.06 0.102,-0.176 0.102,-0.348 v -2.844 c -0.144,-0.17199 -0.25,-0.28599 -0.318,-0.342 -0.068,-0.06001 -0.132,-0.09 -0.192,-0.09 v -0.14999 h 1.266"
         id="path5434" />
      <path
         inkscape:connector-curvature="0"
         d="m 34.207,92.162 c 0.436,0 0.768,-0.088 0.996,-0.264 0.228,-0.176003 0.424,-0.442 0.588,-0.798 h 0.168 l -0.24,1.248 h -3.51 v -0.15001 c 0.224,-0.02399 0.368,-0.062 0.432,-0.114 0.064,-0.05199 0.096,-0.156 0.096,-0.312 v -2.904 c 0,-0.15199 -0.036,-0.25799 -0.108,-0.318 -0.072,-0.06 -0.212,-0.096 -0.42,-0.108 V 88.292 h 3.462 v 1.206 h -0.15 c -0.076,-0.39999 -0.21,-0.66598 -0.402,-0.798 -0.19199,-0.13599 -0.532,-0.20399 -1.02,-0.204 -0.156,1.5e-5 -0.26,0.02 -0.312,0.06 -0.05199,0.036 -0.07799,0.11002 -0.07799,0.222 v 1.392 h 0.024 c 0.31599,1.5e-5 0.542,-0.064 0.67799,-0.19199 0.136,-0.132 0.22601,-0.36599 0.27,-0.702 h 0.156 v 2.028 h -0.156 c -0.036,-0.348 -0.126,-0.59 -0.27,-0.726 -0.14,-0.136 -0.374,-0.204 -0.702,-0.204 v 1.452 c 0,0.128 0.034,0.216 0.102,0.264 0.072,0.048 0.204,0.072 0.396,0.072"
         id="path5436" />
    </g>
  </g>
</svg>
